<?xml version="1.0" encoding="UTF-8"?>
<svg width="50px" height="39px" xmlns="http://www.w3.org/2000/svg" xmlns:xlink="http://www.w3.org/1999/xlink" version="1.1" id="Layer_1" x="0px" y="0px" viewBox="0 0 512 512" style="enable-background:new 0 0 512 512;" xml:space="preserve">

<g transform="translate(0.000000,782.000000) scale(0.100000,-0.100000)"
fill="#000000" stroke="none">
<path d="M670 7394 c-49 -35 -67 -79 -55 -133 7 -33 76 -92 575 -493 169 -136
311 -252 317 -260 6 -7 29 -71 51 -143 71 -225 773 -2687 775 -2715 1 -19 -96
-162 -536 -790 -307 -437 -327 -468 -327 -509 0 -37 5 -49 40 -83 l40 -40
3001 4 3001 3 34 37 c27 30 34 46 34 79 0 48 -27 91 -67 108 -20 8 -799 11
-2870 13 -1563 2 -2844 6 -2848 10 -7 7 92 151 469 683 93 132 183 258 199
281 l29 41 105 7 c59 3 989 6 2068 6 l1961 0 31 33 c17 17 107 142 200 277
155 223 1374 2001 1568 2285 143 210 153 236 118 296 -19 31 -68 59 -105 59
-41 0 -83 -36 -139 -118 l-54 -81 -3220 -1 -3221 0 -49 172 c-27 94 -59 186
-70 202 -26 39 -132 128 -565 474 -190 151 -353 282 -362 290 -27 23 -99 26
-128 6z m1540 -1654 l0 -370 -58 0 -57 0 -103 363 c-57 199 -103 365 -102 370
0 4 72 7 160 7 l160 0 0 -370z m950 0 l0 -370 -405 0 -405 0 0 370 0 370 405
0 405 0 0 -370z m1020 -5 l0 -375 -348 0 c-192 0 -390 3 -440 6 l-92 7 0 368
0 369 440 0 440 0 0 -375z m1020 -7 l0 -381 -142 6 c-79 4 -279 7 -445 7
l-303 0 0 359 c0 198 3 366 6 375 5 14 54 16 445 16 l439 0 0 -382z m1090 0
l0 -381 -347 6 c-190 4 -404 7 -475 7 l-128 0 0 375 0 375 475 0 475 0 0 -382z
m1090 2 l0 -380 -459 0 c-253 0 -466 3 -475 6 -14 5 -16 48 -16 380 l0 374
475 0 475 0 0 -380z m790 369 c0 -6 -114 -177 -252 -380 l-253 -369 -72 0 -73
0 0 373 c0 206 3 377 7 380 12 12 643 8 643 -4z m-5960 -974 c0 -58 -4 -105
-8 -105 -7 0 -62 181 -62 203 0 4 16 7 35 7 l35 0 0 -105z m948 -217 l2 -318
-405 0 -405 0 0 320 0 320 403 -2 402 -3 3 -317z m1020 0 l2 -318 -440 0 -440
0 0 320 0 320 438 -2 437 -3 3 -317z m1022 -3 l0 -315 -445 0 -445 0 0 315 0
315 445 0 445 0 0 -315z m813 308 l277 -6 0 -309 0 -308 -474 0 c-261 0 -477
3 -479 8 -2 4 -2 145 1 315 l4 307 197 0 c108 0 321 -3 474 -7z m1367 -140 l0
-138 -117 -172 -117 -173 -358 0 -358 0 0 310 0 310 475 0 475 0 0 -137z m174
129 c6 -10 -22 -47 -30 -40 -3 4 -3 16 1 27 6 21 20 27 29 13z m-4396 -1109
l-3 -358 -296 -3 -296 -2 -101 352 c-70 249 -96 355 -88 360 6 4 185 8 399 8
l387 0 -2 -357z m1020 0 l-3 -358 -435 0 -435 0 -3 358 -2 357 440 0 440 0 -2
-357z m1020 0 l-3 -358 -440 0 -440 0 -3 358 -2 357 445 0 445 0 -2 -357z
m1092 -5 l0 -361 -122 6 c-66 4 -280 7 -473 7 l-353 0 -4 348 c-3 191 -3 350
-1 355 2 4 218 7 479 7 l474 0 0 -362z m750 357 c0 -15 -475 -697 -492 -706
-10 -5 -40 -9 -66 -7 l-47 3 -3 358 -2 357 305 0 c168 0 305 -2 305 -5z"/>
<path d="M2291 1995 c-82 -23 -164 -71 -227 -133 -69 -69 -98 -114 -131 -201
-22 -59 -24 -77 -21 -186 3 -111 5 -125 36 -189 46 -99 95 -160 167 -212 168
-120 360 -136 545 -47 73 35 188 151 224 224 104 214 62 456 -106 620 -23 22
-83 61 -134 86 -90 45 -97 46 -196 50 -71 2 -120 -2 -157 -12z"/>
<path d="M6146 1999 c-175 -41 -336 -198 -382 -373 -19 -70 -18 -210 2 -277
54 -185 216 -333 402 -370 258 -50 519 111 597 368 19 61 19 212 0 282 -60
225 -272 383 -510 380 -38 -1 -88 -5 -109 -10z"/>
</g>
</svg>
